# xmcd
#
# Track frame offsets:
#	150
#	19789
#	36494
#	55957
#	76917
#	94106
#	111695
#	129094
#	146386
#	165296
#	184795
#	203534
#	221093
#	238591
#
# Disc length: 3406 seconds
#
# Revision: 5
# Processed by: cddbd v1.5.2PL0 Copyright (c) Steve Scherf et al.
# Submitted via: EasyCDDAExtractor 15.3.0.1
#
DISCID=bb0d4c0e
DTITLE=Nek - La Vida Es
DYEAR=2000
DGENRE=Latin
TTITLE0=Llegas Tu
TTITLE1=Miami
TTITLE2=La Vida Es
TTITLE3=Nuestro Mejor Dia
TTITLE4=Lleno De Energia
TTITLE5=En El Tren
TTITLE6=Celos
TTITLE7=Vivire
TTITLE8=Volveras A Vivir
TTITLE9=Creo
TTITLE10=Comenzar De Cero
TTITLE11=Tu Me Das
TTITLE12=Lejos De Mi
TTITLE13=Llegas Tu (Version Acustica)
EXTD=The database shows only the Italian Album.  These are the names for the S
EXTD=panish Album. YEAR: 2000
EXTT0=
EXTT1=
EXTT2=
EXTT3=
EXTT4=
EXTT5=
EXTT6=
EXTT7=
EXTT8=
EXTT9=
EXTT10=
EXTT11=
EXTT12=
EXTT13=
PLAYORDER=
